<svg width="44" height="44" viewBox="0 0 44 44" fill="none" xmlns="http://www.w3.org/2000/svg">
  <g clip-path="url(#clip0_14815_126063)">
    <path fill-rule="evenodd" clip-rule="evenodd" d="M39.642 21.897C37.4027 20.1939 34.5414 19.9968 32.7039 22.356C30.8664 24.7152 32.078 27.806 34.3543 29.0352C37.6875 30.8351 42.5003 31.6265 43.6537 29.8661C44.8071 28.1058 41.9179 23.6279 39.642 21.897Z" fill="url(#paint0_linear_14815_126063)"/>
    <path fill-rule="evenodd" clip-rule="evenodd" d="M39.642 21.897C37.4027 20.1939 34.5414 19.9968 32.7039 22.356C30.8664 24.7152 32.078 27.806 34.3543 29.0352C37.6875 30.8351 42.5003 31.6265 43.6537 29.8661C44.8071 28.1058 41.9179 23.6279 39.642 21.897Z" fill="url(#paint1_radial_14815_126063)"/>
    <path fill-rule="evenodd" clip-rule="evenodd" d="M10.8647 26.4769L10.8647 14.8301C10.8647 8.4641 16.0331 3.29572 22.3991 3.29572C28.7652 3.29572 33.9336 8.4641 33.9336 14.8301V27.0274C33.9336 38.0675 10.8647 35.2248 10.8647 26.4769Z" fill="url(#paint2_radial_14815_126063)"/>
    <path fill-rule="evenodd" clip-rule="evenodd" d="M34.9029 14.3679V26.1607C34.9029 33.0631 29.2991 38.6668 22.3968 38.6668C15.4944 38.6668 9.89062 33.0631 9.89062 26.1607V13.771C9.89062 12.8921 10.2697 12.3948 11.1674 12.6693C12.3617 13.0346 12.8643 13.425 13.675 14.9552C14.4248 16.3705 17.0978 21.4855 17.7286 22.5022C18.9871 24.5302 20.9851 26.9768 26.4463 26.9768C30.5472 26.9768 34.0177 23.6732 34.0177 20.1389V13.0346C34.0177 12.538 34.9029 13.1968 34.9029 14.3679Z" fill="url(#paint3_linear_14815_126063)"/>
    <path fill-rule="evenodd" clip-rule="evenodd" d="M22.3988 38.0015C26.4464 38.0015 28.0915 37.2992 31.1337 35.1094C28.8789 37.3112 25.7962 38.6688 22.3988 38.6688C19.0861 38.6688 16.0726 37.3781 13.834 35.2725C15.9796 36.5203 18.0377 38.0015 22.3988 38.0015Z" fill="white" fill-opacity="0.05"/>
    <path fill-rule="evenodd" clip-rule="evenodd" d="M24.3022 31.2609C24.2669 31.6251 24.2155 33.147 24.1983 33.4362C24.181 33.7254 24.3879 33.9493 24.6276 34.1185C24.8674 34.2878 25.8188 34.845 26.1571 34.9779C26.4954 35.1108 26.8575 35.0835 27.1482 34.9779C27.4389 34.8723 28.5728 34.1339 28.7831 33.9356C28.9934 33.7373 29.1929 33.3619 29.2552 32.9994C29.3206 32.6181 29.3931 31.7699 29.4005 31.5389C29.4135 31.1288 29.3778 30.9948 29.1267 30.7424C28.8157 30.4296 28.0422 29.9032 27.7022 29.702C27.3737 29.5074 26.852 29.4802 26.4202 29.7106C26.0855 29.8891 25.0556 30.429 24.7642 30.6153C24.4729 30.8016 24.327 31.0047 24.3022 31.2609Z" fill="url(#paint4_radial_14815_126063)"/>
    <path fill-rule="evenodd" clip-rule="evenodd" d="M24.9258 31.3531C24.9048 31.57 24.8741 32.4767 24.8639 32.649C24.8536 32.8213 24.9768 32.9546 25.1196 33.0554C25.2625 33.1563 25.8292 33.4882 26.0308 33.5674C26.2323 33.6466 26.448 33.6303 26.6212 33.5674C26.7944 33.5045 27.4698 33.0646 27.5951 32.9465C27.7204 32.8283 27.8393 32.6047 27.8764 32.3887C27.9153 32.1616 27.9585 31.6563 27.9629 31.5187C27.9707 31.2744 27.9494 31.1946 27.7998 31.0442C27.6146 30.8579 27.1537 30.5443 26.9512 30.4244C26.7555 30.3085 26.4447 30.2923 26.1875 30.4296C25.9881 30.5359 25.3746 30.8575 25.201 30.9685C25.0275 31.0795 24.9405 31.2005 24.9258 31.3531Z" fill="white"/>
    <path fill-rule="evenodd" clip-rule="evenodd" d="M24.3012 31.2609C24.2659 31.6251 24.2145 33.147 24.1973 33.4362C24.2556 32.782 24.3275 31.557 24.3569 31.2769C24.3912 30.95 24.6246 30.7867 24.7984 30.6754C25.2102 30.4119 26.114 29.9476 26.4376 29.7749C26.7673 29.599 27.3133 29.5453 27.6621 29.7643C28.0667 30.0181 28.687 30.4202 29.0757 30.7791C29.3309 31.0147 29.3644 31.14 29.3995 31.5389C29.4125 31.1288 29.3767 30.9948 29.1257 30.7424C28.8147 30.4296 28.0412 29.9032 27.7012 29.702C27.3727 29.5074 26.851 29.4802 26.4192 29.7106C26.0845 29.8891 25.0546 30.429 24.7632 30.6153C24.4718 30.8016 24.3259 31.0047 24.3012 31.2609Z" fill="#0042C3"/>
    <path fill-rule="evenodd" clip-rule="evenodd" d="M29.4017 31.5391C29.4014 31.8631 29.383 32.2599 29.3052 32.9986C29.2765 33.2705 29.1182 33.7739 28.8111 34.0073C28.3229 34.3783 27.6917 34.8243 27.1849 35.0402C26.7643 35.2194 26.3516 35.1415 26.1373 35.0411C25.5528 34.7671 24.9529 34.3899 24.5706 34.1548C24.1708 33.9089 24.1778 33.681 24.1995 33.4363C24.1823 33.7255 24.3891 33.9495 24.6289 34.1187C24.8686 34.2879 25.82 34.8451 26.1583 34.9781C26.4966 35.1109 26.8588 35.0836 27.1495 34.9781C27.4402 34.8724 28.574 34.134 28.7843 33.9357C28.9947 33.7374 29.1942 33.362 29.2564 32.9995C29.3219 32.6183 29.3944 31.77 29.4017 31.5391Z" fill="#98B5FF"/>
    <path fill-rule="evenodd" clip-rule="evenodd" d="M9.89062 14.5921V13.771C9.89062 12.8921 10.2697 12.3948 11.1674 12.6694C12.3617 13.0345 12.8643 13.425 13.6751 14.9552C14.4248 16.3705 17.0978 21.4855 17.7286 22.5021C18.9871 24.5302 20.9851 26.9768 26.4463 26.9768C30.5471 26.9768 34.0176 23.6732 34.0176 20.1389V13.0345C34.0176 12.538 34.9029 13.1968 34.9029 14.3679V20.0721C34.9029 24.0508 31.8603 27.8719 26.5733 27.8719C20.5402 27.8719 18.1328 25.4964 16.6671 22.6933C15.484 20.4307 13.1196 15.9814 12.5153 14.8715C11.8019 13.561 10.9894 13.5611 10.4487 13.4239C9.9231 13.2907 9.89062 14.1055 9.89062 14.5921Z" fill="url(#paint5_linear_14815_126063)"/>
    <path d="M21.5284 19.8226C23.7068 19.8226 25.4728 17.6543 25.4728 14.9797C25.4728 12.305 23.7068 10.1367 21.5284 10.1367C19.35 10.1367 17.584 12.305 17.584 14.9797C17.584 17.6543 19.35 19.8226 21.5284 19.8226Z" fill="url(#paint6_radial_14815_126063)"/>
    <path d="M30.1168 19.8226C32.1855 19.8226 33.8625 17.6543 33.8625 14.9797C33.8625 12.305 32.1855 10.1367 30.1168 10.1367C28.0481 10.1367 26.3711 12.305 26.3711 14.9797C26.3711 17.6543 28.0481 19.8226 30.1168 19.8226Z" fill="url(#paint7_radial_14815_126063)"/>
    <path d="M21.5269 18.0689C22.6949 18.0689 23.6418 16.6832 23.6418 14.9739C23.6418 13.2646 22.6949 11.8789 21.5269 11.8789C20.359 11.8789 19.4121 13.2646 19.4121 14.9739C19.4121 16.6832 20.359 18.0689 21.5269 18.0689Z" fill="white"/>
    <path fill-rule="evenodd" clip-rule="evenodd" d="M22.9882 21.0049C23.5308 21.3746 24.0947 21.6465 24.6665 21.8141C25.0877 21.9376 25.5108 22.0013 25.9207 22.0102C26.0946 22.014 26.2665 22.0057 26.4341 21.9847C26.6967 21.9518 26.9496 21.8957 27.189 21.8139C27.8337 21.5935 28.3798 21.2376 28.7863 20.7685C28.8742 20.6857 28.8784 20.5472 28.7956 20.4593C28.7128 20.3715 28.5743 20.3673 28.4864 20.4501C28.0719 20.768 27.5583 20.9469 26.9927 21.0419C26.8199 21.071 26.6431 21.0872 26.4615 21.1009C26.2867 21.1143 26.1084 21.1192 25.9266 21.1207C25.4909 21.1242 25.0377 21.0892 24.5746 20.988C24.1351 20.8918 23.6884 20.7611 23.2469 20.5534C23.1224 20.482 22.9633 20.5252 22.8918 20.6498C22.8205 20.7744 22.8636 20.9335 22.9882 21.0049Z" fill="white"/>
    <path d="M30.3206 18.0689C31.4092 18.0689 32.2916 16.6832 32.2916 14.9739C32.2916 13.2646 31.4092 11.8789 30.3206 11.8789C29.2321 11.8789 28.3496 13.2646 28.3496 14.9739C28.3496 16.6832 29.2321 18.0689 30.3206 18.0689Z" fill="white"/>
    <path d="M11.5534 32.8737C13.6464 32.8737 15.3431 29.7802 15.3431 25.9642C15.3431 22.1482 13.6464 19.0547 11.5534 19.0547C9.46038 19.0547 7.76367 22.1482 7.76367 25.9642C7.76367 29.7802 9.46038 32.8737 11.5534 32.8737Z" fill="url(#paint8_radial_14815_126063)"/>
    <path fill-rule="evenodd" clip-rule="evenodd" d="M4.73883 21.897C6.97811 20.1939 9.8395 19.9968 11.677 22.356C13.5145 24.7152 12.3028 27.806 10.0266 29.0352C6.69334 30.8351 1.88056 31.6265 0.727186 29.8661C-0.426244 28.1058 2.46298 23.6279 4.73883 21.897Z" fill="url(#paint9_linear_14815_126063)"/>
    <path fill-rule="evenodd" clip-rule="evenodd" d="M4.73883 21.897C6.97811 20.1939 9.8395 19.9968 11.677 22.356C13.5145 24.7152 12.3028 27.806 10.0266 29.0352C6.69334 30.8351 1.88056 31.6265 0.727186 29.8661C-0.426244 28.1058 2.46298 23.6279 4.73883 21.897Z" fill="url(#paint10_radial_14815_126063)"/>
  </g>
  <defs>
    <linearGradient id="paint0_linear_14815_126063" x1="39.0739" y1="22.8245" x2="35.0049" y2="29.3241" gradientUnits="userSpaceOnUse">
      <stop stop-color="#ACC5FD"/>
      <stop offset="1" stop-color="#3966B8"/>
    </linearGradient>
    <radialGradient id="paint1_radial_14815_126063" cx="0" cy="0" r="1" gradientUnits="userSpaceOnUse" gradientTransform="translate(37.173 21.6231) rotate(97.4498) scale(6.69846 6.69846)">
      <stop stop-color="#E2E9FA"/>
      <stop offset="0.33" stop-color="#D6E3FF" stop-opacity="0.67"/>
      <stop offset="1" stop-color="#8BA9E8" stop-opacity="0"/>
    </radialGradient>
    <radialGradient id="paint2_radial_14815_126063" cx="0" cy="0" r="1" gradientUnits="userSpaceOnUse" gradientTransform="translate(19.2233 10.0541) rotate(54.7804) scale(18.6273)">
      <stop stop-color="#0060D3"/>
      <stop offset="0.27" stop-color="#004BB4"/>
      <stop offset="1" stop-color="#002176"/>
    </radialGradient>
    <linearGradient id="paint3_linear_14815_126063" x1="22.8408" y1="39.0493" x2="22.0859" y2="17.1164" gradientUnits="userSpaceOnUse">
      <stop stop-color="#2667C5"/>
      <stop offset="1" stop-color="#C2D2F6"/>
    </linearGradient>
    <radialGradient id="paint4_radial_14815_126063" cx="0" cy="0" r="1" gradientUnits="userSpaceOnUse" gradientTransform="translate(26.4312 32.0346) rotate(42.285) scale(2.47347)">
      <stop stop-color="#D7E2FF"/>
      <stop offset="1" stop-color="#0040BF"/>
    </radialGradient>
    <linearGradient id="paint5_linear_14815_126063" x1="9.89063" y1="22.4395" x2="34.5282" y2="23.0389" gradientUnits="userSpaceOnUse">
      <stop stop-color="#E6EEFF"/>
      <stop offset="0.2" stop-color="#C2D2F6"/>
      <stop offset="0.5" stop-color="#FCFCFE"/>
      <stop offset="0.8" stop-color="white"/>
      <stop offset="1" stop-color="#E1E9FE"/>
    </linearGradient>
    <radialGradient id="paint6_radial_14815_126063" cx="0" cy="0" r="1" gradientUnits="userSpaceOnUse" gradientTransform="translate(21.638 14.9046) rotate(90.6297) scale(4.8081 3.6864)">
      <stop stop-color="white"/>
      <stop offset="0.54" stop-color="white" stop-opacity="0.29"/>
      <stop offset="1" stop-color="white" stop-opacity="0"/>
    </radialGradient>
    <radialGradient id="paint7_radial_14815_126063" cx="0" cy="0" r="1" gradientUnits="userSpaceOnUse" gradientTransform="translate(30.2209 14.9046) rotate(90.5979) scale(4.80807 3.50072)">
      <stop stop-color="white"/>
      <stop offset="0.54" stop-color="white" stop-opacity="0.29"/>
      <stop offset="1" stop-color="white" stop-opacity="0"/>
    </radialGradient>
    <radialGradient id="paint8_radial_14815_126063" cx="0" cy="0" r="1" gradientUnits="userSpaceOnUse" gradientTransform="translate(11.6639 25.7488) rotate(92.0621) scale(6.72252 3.68771)">
      <stop stop-color="#00449B"/>
      <stop offset="1" stop-color="#77A0E2" stop-opacity="0"/>
    </radialGradient>
    <linearGradient id="paint9_linear_14815_126063" x1="5.30697" y1="22.8245" x2="9.37595" y2="29.3241" gradientUnits="userSpaceOnUse">
      <stop stop-color="#ACC5FD"/>
      <stop offset="1" stop-color="#3966B8"/>
    </linearGradient>
    <radialGradient id="paint10_radial_14815_126063" cx="0" cy="0" r="1" gradientUnits="userSpaceOnUse" gradientTransform="translate(6.77606 21.9926) rotate(82.5502) scale(6.69846 6.69846)">
      <stop stop-color="#E2E9FA"/>
      <stop offset="0.33" stop-color="#D6E3FF" stop-opacity="0.67"/>
      <stop offset="1" stop-color="#8BA9E8" stop-opacity="0"/>
    </radialGradient>
    <clipPath id="clip0_14815_126063">
      <rect width="44" height="44" fill="white"/>
    </clipPath>
  </defs>
</svg>
